# xmcd
#
# Track frame offsets:
#	182
#	14222
#	29440
#	46430
#	62732
#	79025
#	93282
#	107020
#	121257
#	144472
#	158837
#	179895
#	193942
#	208755
#
# Disc length: 3000 seconds
#
# Revision: 2
# Processed by: cddbd v1.4PL0 Copyright (c) Steve Scherf et al.
# Submitted via: CDmax 1.8
#
DISCID=cc0bb60e
DTITLE=Kamelot - Zachrante kone
DYEAR=1900
DGENRE=Country
TTITLE0=Zpatky par let
TTITLE1=Cikani
TTITLE2=Pristav
TTITLE3=Amulet
TTITLE4=Cas rozchodu
TTITLE5=Dik pane Foglar
TTITLE6=Zachrante kone
TTITLE7=Psano na brezove kure
TTITLE8=Bella a Sebastian
TTITLE9=Adler
TTITLE10=Zatmeni
TTITLE11=Vernak
TTITLE12=Setri si slzy z oci
TTITLE13=Velka voda
EXTD=
EXTT0=
EXTT1=
EXTT2=
EXTT3=
EXTT4=
EXTT5=
EXTT6=
EXTT7=
EXTT8=
EXTT9=
EXTT10=
EXTT11=
EXTT12=
EXTT13=
PLAYORDER=
